<svg version="1.1" id="Layer_1" xmlns="http://www.w3.org/2000/svg" xmlns:xlink="http://www.w3.org/1999/xlink" x="0px" y="0px"
	 width="100%" viewBox="200 600 1700 500" enable-background="new 0 0 2000 1500" xml:space="preserve">
<path fill="none" opacity="1.000000" stroke="none" 
	d="
M1793.000000,1501.000000 
	C1195.333496,1501.000000 598.166992,1501.000000 1.000401,1501.000000 
	C1.000267,1001.000305 1.000267,501.000641 1.000134,1.000736 
	C667.666138,1.000491 1334.332275,1.000491 2000.998779,1.000245 
	C2000.999268,500.999298 2000.999268,1000.998596 2000.999634,1500.999023 
	C1931.833374,1501.000000 1862.666626,1501.000000 1793.000000,1501.000000 
M276.514526,823.969055 
	C304.028198,843.023621 345.660309,835.099304 362.227875,797.549744 
	C364.624939,798.428223 367.087341,799.287292 369.517456,800.229675 
	C375.889984,802.700745 381.710693,801.692078 386.603943,797.013916 
	C391.561371,792.274414 392.735840,786.285950 390.110474,780.067627 
	C388.824768,777.022400 389.466248,775.407227 391.515381,773.210938 
	C408.226044,755.299194 424.810699,737.269897 441.450439,719.291870 
	C442.376953,718.290894 443.451904,717.427185 444.527710,716.435181 
	C445.910736,720.140381 447.083374,723.281982 448.230988,726.356506 
	C414.595795,746.455322 412.409943,782.324585 424.945099,804.623108 
	C439.013947,829.649841 469.041748,840.499878 495.488831,830.038635 
	C522.255493,819.450989 537.007202,790.672974 529.754578,762.898376 
	C526.164612,749.150452 518.466003,738.067932 506.663147,730.166382 
	C489.708252,718.815857 471.449707,717.535583 452.527771,724.573975 
	C448.740875,712.505066 445.113403,700.944214 441.467438,689.324524 
	C450.386505,689.324524 459.151703,689.400085 467.914825,689.295898 
	C473.071869,689.234680 478.235657,689.005066 483.371277,688.560730 
	C484.282257,688.481934 485.069733,686.975647 485.914215,686.128540 
	C484.897156,685.496521 483.884155,684.322021 482.862396,684.314331 
	C469.220978,684.211731 455.577545,684.201843 441.936829,684.359863 
	C439.588501,684.387085 437.250458,685.300537 434.669342,685.855896 
	C436.179840,690.590820 437.466919,694.625305 438.802734,698.812622 
	C409.716614,698.812622 380.948669,698.812622 352.005615,698.812622 
	C349.637482,691.302734 347.309875,683.921387 345.151917,677.078003 
	C349.360291,669.974976 356.395355,674.466614 362.048126,672.100159 
	C347.509674,664.329346 331.562073,670.560425 316.458740,667.476624 
	C321.294800,673.426758 327.404602,676.314392 334.076843,678.159485 
	C336.733093,679.499634 339.389374,680.839783 342.856873,682.589172 
	C343.748993,685.730530 345.136169,690.002075 346.143585,694.361450 
	C346.913605,697.693604 348.603119,701.746338 347.441071,704.414978 
	C344.097565,712.093323 339.515656,719.232422 335.445007,726.539062 
	C300.639069,710.557007 270.271484,728.264038 258.662292,750.186829 
	C245.189758,775.628296 252.192169,805.880432 276.514526,823.969055 
M806.248596,773.590393 
	C806.074219,757.576355 794.638428,751.670410 781.556458,746.789124 
	C783.444397,745.489197 784.915894,744.483032 786.380371,743.466736 
	C796.919128,736.152954 802.087036,726.287537 799.635864,713.427124 
	C797.212585,700.713562 788.059387,694.512756 776.190796,692.905151 
	C766.878540,691.643860 757.318054,692.105652 747.865784,692.015442 
	C735.395264,691.896423 722.922729,691.986145 710.010864,691.986145 
	C709.500244,696.033020 709.021301,699.828552 708.527466,703.741943 
	C710.141418,703.893005 710.796265,704.003967 711.451843,704.008179 
	C720.780762,704.066467 721.589478,704.782410 721.575012,714.223328 
	C721.539917,737.204041 721.473145,760.185120 721.284790,783.164978 
	C721.208496,792.469055 719.748230,794.183105 711.022095,797.251892 
	C709.924988,797.637756 708.368286,798.551331 708.206665,799.436340 
	C707.599548,802.760315 707.482422,806.173706 707.216370,809.163330 
	C722.297241,809.163330 736.739929,809.183472 751.182495,809.154358 
	C757.816650,809.140991 764.525269,809.645447 771.071045,808.851318 
	C791.828857,806.332886 805.214661,792.967407 806.248596,773.590393 
M1185.456055,762.377380 
	C1191.773193,761.058716 1195.067627,763.972534 1197.317261,769.763428 
	C1199.716064,775.938538 1202.999146,781.782043 1206.065063,787.682495 
	C1208.666870,792.689575 1211.194946,797.782654 1214.329102,802.452637 
	C1217.809692,807.638611 1222.770874,811.171448 1229.353271,810.830017 
	C1236.136719,810.478088 1242.890869,809.560059 1249.877319,808.867920 
	C1250.277222,806.197205 1250.964844,803.746277 1250.869385,801.326233 
	C1250.822754,800.142334 1249.451660,798.152710 1248.455078,798.000488 
	C1240.796997,796.830994 1236.044189,791.852844 1232.134277,785.884705 
	C1227.486206,778.789734 1223.134766,771.499939 1218.673706,764.282898 
	C1217.141602,761.804138 1215.666260,759.290222 1214.165039,756.792358 
	C1214.682495,757.009277 1215.200073,757.226257 1215.717529,757.443176 
	C1221.530151,751.632568 1228.428223,746.555603 1232.947021,739.870422 
	C1245.284058,721.618347 1236.841797,699.984070 1215.722534,694.068359 
	C1211.748779,692.955261 1207.563599,692.051514 1203.467285,692.014404 
	C1184.661377,691.843994 1165.852539,692.013489 1147.044800,692.084412 
	C1146.770752,692.085449 1146.497681,692.387756 1145.989868,692.688110 
	C1145.522095,696.231567 1145.033936,699.928894 1144.499512,703.977417 
	C1146.596558,703.977417 1147.748535,703.987793 1148.900269,703.975708 
	C1156.317383,703.897827 1157.337280,704.647278 1157.372070,712.136536 
	C1157.482178,735.781372 1157.521973,759.428162 1157.331665,783.072083 
	C1157.255737,792.492981 1155.893555,793.788574 1146.947510,796.941589 
	C1145.851685,797.327881 1144.614502,798.699524 1144.362183,799.821289 
	C1143.722412,802.665283 1143.605591,805.626953 1143.278076,808.551880 
	C1159.693848,808.551880 1175.763672,808.551880 1192.300537,808.551880 
	C1192.850098,804.712463 1193.379761,801.011536 1193.941772,797.085632 
	C1192.195557,796.769409 1190.917114,796.470276 1189.621460,796.314453 
	C1182.279541,795.430969 1180.993286,794.372986 1180.723511,787.046631 
	C1180.460327,779.902039 1180.850586,772.735779 1180.761719,765.581360 
	C1180.726440,762.748352 1182.130371,762.163940 1185.456055,762.377380 
M1656.181152,730.500000 
	C1656.161987,748.319458 1656.235596,766.139771 1656.082764,783.958069 
	C1656.010986,792.327576 1654.172119,794.386108 1646.344849,796.796326 
	C1645.152222,797.163513 1643.521973,798.173706 1643.279175,799.174316 
	C1642.547852,802.186646 1642.401611,805.341125 1642.000244,808.662598 
	C1656.935303,808.662598 1671.532837,808.662659 1686.130493,808.662659 
	C1687.618408,808.662659 1689.106201,808.662598 1691.020996,808.662598 
	C1691.588867,804.850525 1692.141968,801.137695 1692.779785,796.855774 
	C1690.209595,796.555603 1688.113403,796.288452 1686.012085,796.070618 
	C1682.634888,795.720398 1680.039917,794.081360 1679.952881,790.587036 
	C1679.722656,781.352600 1679.874878,772.108643 1679.874878,762.950256 
	C1691.572876,761.104370 1691.743042,761.200073 1696.668213,771.123474 
	C1701.103760,780.060303 1705.390625,789.076904 1710.070068,797.884521 
	C1713.522095,804.381897 1718.204956,810.360352 1726.144409,810.641846 
	C1733.678711,810.908875 1741.269897,809.571777 1748.684448,808.952759 
	C1749.017944,806.761536 1749.093384,805.240784 1749.497192,803.812866 
	C1750.556763,800.065552 1749.749268,798.271057 1745.437744,797.289124 
	C1741.934204,796.491150 1737.836304,794.470337 1735.812744,791.679138 
	C1727.661987,780.435852 1720.213623,768.683167 1713.477051,758.575867 
	C1720.439209,751.476807 1727.614380,746.154663 1732.164185,739.131714 
	C1743.888794,721.034241 1735.333618,699.948669 1714.668457,694.102722 
	C1710.697266,692.979248 1706.511841,692.063171 1702.416016,692.024353 
	C1683.608887,691.845764 1664.798462,692.010498 1645.989258,692.073853 
	C1645.710571,692.074768 1645.432983,692.356445 1644.985718,692.598755 
	C1644.710083,693.944824 1644.337769,695.395813 1644.123901,696.869873 
	C1643.129517,703.722656 1643.144775,703.850037 1650.088867,703.871643 
	C1654.066162,703.884033 1656.001343,705.634644 1656.045898,709.518005 
	C1656.122192,716.178284 1656.139160,722.839294 1656.181152,730.500000 
M1538.244385,723.074280 
	C1535.692749,713.432739 1533.082031,703.806213 1530.624878,694.140686 
	C1529.877319,691.200317 1528.465210,690.041992 1525.324219,690.470032 
	C1519.721680,691.233643 1514.070801,692.100830 1508.441528,692.091553 
	C1501.959961,692.080811 1498.506348,694.722900 1497.268188,701.067200 
	C1496.606445,704.458069 1495.072998,707.680969 1493.909180,710.971313 
	C1485.374512,735.101685 1476.973267,759.281067 1468.162964,783.310364 
	C1466.626099,787.501892 1464.034302,791.829346 1460.730347,794.726135 
	C1455.916138,798.947327 1454.384399,801.094421 1455.675415,808.494873 
	C1471.311646,808.494873 1487.011963,808.494873 1502.803955,808.494873 
	C1503.192017,804.677795 1503.553467,801.121765 1503.997070,796.758972 
	C1499.847168,796.758972 1496.372681,797.016785 1492.951904,796.698242 
	C1487.890259,796.226990 1486.043457,793.887939 1487.191406,788.950256 
	C1488.391968,783.785522 1490.150391,778.738647 1491.906738,773.725037 
	C1492.251465,772.741699 1493.676636,771.506470 1494.644775,771.469482 
	C1504.445190,771.095032 1514.253784,770.884583 1524.061279,770.830444 
	C1525.010742,770.825195 1526.563965,772.010742 1526.823120,772.929504 
	C1528.355225,778.361206 1529.729614,783.848206 1530.870850,789.375671 
	C1531.645386,793.127197 1529.851807,795.438354 1526.024048,796.088928 
	C1523.109985,796.584229 1520.200317,797.104858 1517.248901,797.621155 
	C1516.952026,800.333496 1516.786011,802.823730 1516.384399,805.275513 
	C1515.880127,808.354553 1516.889648,809.345825 1520.124634,809.259644 
	C1535.591431,808.847290 1551.066406,808.737427 1566.533081,808.322754 
	C1567.655151,808.292664 1569.284912,806.899902 1569.709351,805.774902 
	C1570.391846,803.966003 1570.549683,801.825684 1570.371338,799.876465 
	C1570.267700,798.743347 1569.187378,796.871460 1568.356323,796.760925 
	C1559.845703,795.628906 1557.085571,789.369324 1555.096069,782.374695 
	C1549.548462,762.871826 1544.036255,743.358826 1538.244385,723.074280 
M1080.054565,782.189087 
	C1078.731934,787.868774 1075.602905,792.161194 1069.598755,792.825684 
	C1062.511963,793.609924 1055.338257,793.732117 1048.197510,793.848938 
	C1044.908325,793.902649 1042.116943,792.293823 1042.053833,788.618591 
	C1041.877930,778.360352 1041.992676,768.097168 1041.992676,757.102661 
	C1054.810425,757.102661 1067.034180,757.102661 1079.361206,757.102661 
	C1079.986206,753.480225 1080.548706,750.559265 1080.985596,747.619690 
	C1082.155151,739.752258 1082.155518,740.224792 1074.434204,740.575256 
	C1064.060669,741.046021 1053.649658,740.691956 1042.726929,740.691956 
	C1043.175415,731.057373 1043.603149,721.444885 1044.081665,711.834839 
	C1044.230469,708.843933 1045.967163,707.152832 1048.893555,707.219299 
	C1055.872559,707.377563 1062.863403,707.545715 1069.816284,708.114929 
	C1073.724487,708.434875 1076.188721,710.957092 1076.387817,715.046875 
	C1076.555176,718.482971 1076.422241,721.933594 1076.422241,725.800537 
	C1082.045776,725.392700 1087.083008,725.027405 1091.939941,724.675171 
	C1093.414062,713.953186 1094.833496,703.757324 1096.206787,693.555176 
	C1096.567627,690.873779 1095.257690,690.217590 1092.664429,690.275879 
	C1066.209229,690.870789 1039.751343,691.343811 1013.294067,691.843201 
	C1011.510498,691.876892 1009.725708,691.847595 1007.685059,691.847595 
	C1007.298950,694.752991 1007.144775,697.238525 1006.607117,699.638184 
	C1005.867188,702.940979 1006.825256,704.121155 1010.341309,704.032288 
	C1017.394531,703.854004 1018.547058,704.682373 1018.561646,711.372864 
	C1018.615417,736.020447 1018.496460,760.670349 1018.159119,785.315552 
	C1018.059326,792.605164 1015.694397,794.899536 1008.862793,797.087097 
	C1007.508484,797.520874 1005.632324,798.655212 1005.385498,799.773132 
	C1004.691956,802.913513 1004.723083,806.213989 1004.472351,809.402283 
	C1014.474182,808.925842 1023.931335,808.075317 1033.385254,808.110596 
	C1051.534912,808.178223 1069.683105,808.726624 1087.830688,809.132812 
	C1090.565552,809.194092 1092.685547,809.007568 1093.148926,805.516724 
	C1094.462036,795.623169 1095.951904,785.752136 1097.479980,775.888916 
	C1097.912231,773.099548 1096.823975,772.175659 1094.219604,772.491638 
	C1093.062500,772.632080 1091.904297,772.773193 1090.742554,772.863037 
	C1082.163818,773.526245 1082.163452,773.522156 1080.054565,782.189087 
M1323.246826,691.913147 
	C1302.952393,691.913147 1282.658081,691.913147 1261.927368,691.913147 
	C1261.520874,695.960999 1261.134399,699.809753 1260.736694,703.771179 
	C1262.225952,703.889343 1262.882324,703.987305 1263.538574,703.986389 
	C1272.299683,703.974487 1272.952515,704.573303 1272.986206,713.199158 
	C1273.021484,722.193665 1272.989014,731.188416 1272.973389,740.183105 
	C1272.948730,754.341309 1273.019775,768.500732 1272.845581,782.657166 
	C1272.729614,792.093018 1270.970825,794.205688 1262.422852,797.242126 
	C1261.304199,797.639587 1259.997314,798.998535 1259.766235,800.116455 
	C1259.139404,803.149597 1259.044067,806.292603 1258.729614,809.475037 
	C1268.087280,808.976868 1276.860352,808.095398 1285.629761,808.128601 
	C1304.279907,808.199097 1322.932129,808.617004 1341.574341,809.190857 
	C1345.959229,809.325867 1347.430908,807.683594 1347.867188,803.622375 
	C1348.684326,796.016541 1349.802368,788.439392 1350.945923,780.873169 
	C1352.220459,772.440918 1352.294189,772.812866 1343.642090,772.828857 
	C1338.069702,772.839172 1335.553467,774.343689 1334.725830,780.327026 
	C1333.486450,789.289062 1329.987427,792.228516 1320.910522,793.294006 
	C1315.149658,793.970215 1309.283936,793.991333 1303.470581,793.911194 
	C1298.137817,793.837769 1296.278564,791.930176 1296.100952,786.569702 
	C1295.902588,780.580627 1296.043701,774.579102 1296.089111,768.583435 
	C1296.175171,757.229797 1296.185059,757.054504 1307.362549,756.698547 
	C1316.138306,756.419006 1324.929932,756.642395 1333.697632,756.642395 
	C1334.080566,754.809448 1334.454956,753.187317 1334.751343,751.551208 
	C1335.047607,749.914551 1335.228516,748.256958 1335.525146,746.620361 
	C1336.701782,740.129395 1336.315796,740.197754 1329.657471,740.458740 
	C1318.934448,740.879089 1308.182861,740.571655 1297.032593,740.571655 
	C1297.491455,731.139404 1297.931396,721.531189 1298.441650,711.926758 
	C1298.612671,708.707336 1300.512329,707.079163 1303.665894,707.163574 
	C1310.148193,707.337097 1316.654297,707.358765 1323.098999,707.978821 
	C1328.892822,708.536255 1330.769775,710.985107 1330.976196,716.912048 
	C1331.077271,719.811768 1330.993774,722.717896 1330.993774,725.830444 
	C1336.694092,725.391541 1341.612915,725.012878 1346.218506,724.658264 
	C1347.715820,714.138611 1349.107910,704.109558 1350.588867,694.093567 
	C1351.079834,690.773132 1349.630127,690.087402 1346.609619,690.349976 
	C1339.149292,690.998535 1331.666748,691.392090 1323.246826,691.913147 
M676.318726,777.735779 
	C674.087830,789.861389 670.864807,792.873169 658.536194,793.794800 
	C654.060059,794.129395 649.541321,794.076233 645.048279,793.960571 
	C638.871643,793.801514 637.129456,792.037170 637.030273,785.718384 
	C636.917725,778.555908 637.035400,771.389465 637.082092,764.224915 
	C637.127075,757.335083 637.138123,757.094971 644.110657,756.941772 
	C654.235962,756.719299 664.369812,756.884705 674.659668,756.884705 
	C675.435181,752.488831 676.135071,748.412292 676.878052,744.343689 
	C677.498535,740.945984 676.129028,739.829041 672.757629,740.216492 
	C667.300781,740.843506 661.818665,741.383423 656.333191,741.594116 
	C650.273193,741.826782 644.197449,741.647278 639.181458,741.647278 
	C639.181458,731.348511 639.139465,722.199585 639.200684,713.051392 
	C639.227783,709.006531 641.303101,706.906372 645.462219,707.094482 
	C651.777466,707.380066 658.103027,707.523682 664.405273,707.985840 
	C669.370117,708.350037 671.768250,711.435364 671.915894,716.287598 
	C672.010498,719.395325 671.933655,722.508301 671.933655,725.865173 
	C677.542603,725.403748 682.601379,724.987549 687.199707,724.609314 
	C688.666870,714.068665 689.970337,704.175537 691.459595,694.310425 
	C691.937622,691.143921 690.990845,690.135681 687.769287,690.311646 
	C674.969238,691.010681 662.163147,691.770874 649.349915,692.012024 
	C634.040649,692.300049 618.721802,692.079895 602.893921,692.079895 
	C602.471741,695.877136 602.043030,699.733582 601.613281,703.598999 
	C613.978455,704.729675 613.986267,704.729675 613.968567,716.605225 
	C613.937622,737.434021 613.918457,758.262878 613.832703,779.091431 
	C613.821045,781.910583 613.497742,784.732361 613.239929,787.545715 
	C612.789368,792.463501 610.024780,795.805786 605.313660,796.589294 
	C601.212524,797.271240 600.186584,799.473389 600.140381,803.002625 
	C600.112610,805.122620 599.916687,807.240417 599.790588,809.458984 
	C609.011230,808.970825 617.780457,808.093933 626.546265,808.127625 
	C645.203430,808.199402 663.863037,808.610718 682.511963,809.192993 
	C686.922119,809.330750 688.405151,807.653625 688.793518,803.616516 
	C689.414795,797.157532 690.242310,790.710876 691.222595,784.295654 
	C693.210266,771.289185 693.261719,771.208679 680.109924,773.361572 
	C678.753967,773.583618 677.708496,775.702087 676.318726,777.735779 
M1448.491455,754.994141 
	C1456.136108,747.742004 1461.177490,739.099487 1461.893311,728.430908 
	C1463.262939,708.019409 1449.832886,693.334717 1428.035034,692.135742 
	C1416.081665,691.478271 1404.057739,692.119141 1392.065552,692.153198 
	C1384.447876,692.174866 1376.830322,692.157288 1368.875000,692.157288 
	C1368.402832,696.203735 1367.970337,699.911011 1367.495239,703.982117 
	C1369.547363,703.982117 1370.698975,703.991150 1371.850342,703.980713 
	C1379.116333,703.914490 1380.244629,704.659058 1380.283447,711.695435 
	C1380.417236,735.859131 1380.441162,760.025146 1380.240112,784.188049 
	C1380.169922,792.614563 1378.659058,794.040161 1370.440918,797.059448 
	C1369.425293,797.432617 1368.168701,798.525757 1367.966797,799.483948 
	C1367.326050,802.524658 1367.131836,805.659424 1366.780762,808.624451 
	C1384.348022,808.624451 1401.445557,808.624451 1418.846313,808.624451 
	C1419.427979,804.356567 1419.955444,800.486145 1420.534668,796.235779 
	C1416.489868,796.235779 1413.203613,796.287170 1409.919556,796.221375 
	C1406.583008,796.154541 1404.310913,794.266785 1404.200317,791.093384 
	C1403.924683,783.189636 1404.109497,775.269775 1404.109497,766.805359 
	C1420.182739,767.826782 1435.562744,767.095459 1448.491455,754.994141 
M832.455566,808.675232 
	C844.099548,808.603210 855.744873,808.599121 867.385925,808.374207 
	C868.858948,808.345703 871.300049,807.446106 871.586670,806.456116 
	C872.482910,803.360779 872.561707,800.028809 873.016602,796.303101 
	C871.021362,796.303101 869.567017,796.221252 868.124329,796.316528 
	C859.517273,796.884644 857.431824,795.741638 857.586121,787.359924 
	C858.054871,761.900208 859.104187,736.450745 860.008362,711.000122 
	C860.142395,707.227112 862.381592,704.923462 866.041748,704.009094 
	C867.794434,703.571228 869.539429,703.102295 871.583923,702.570374 
	C871.759033,698.691223 871.927795,694.952759 872.067444,691.859924 
	C855.095581,691.859924 838.682373,691.859924 822.211182,691.859924 
	C821.661865,696.181213 821.210754,699.729736 820.741821,703.418823 
	C822.096985,703.698303 822.736694,703.987915 823.344788,703.932129 
	C834.373291,702.921631 834.350525,705.576294 834.367737,715.768311 
	C834.403198,736.747681 834.384460,757.727173 834.378906,778.706604 
	C834.375061,793.039612 834.221619,793.261597 821.101501,798.547791 
	C820.783020,801.996399 820.454529,805.552979 820.092346,809.474609 
	C824.285522,809.217163 827.906189,808.994873 832.455566,808.675232 
M1578.981934,797.697815 
	C1577.818970,801.438416 1576.655884,805.179016 1575.624146,808.497437 
	C1592.828247,808.497437 1608.777222,808.530090 1624.725220,808.421265 
	C1625.748779,808.414246 1627.495728,807.466675 1627.657715,806.694580 
	C1628.352051,803.386841 1628.578247,799.980835 1629.016479,796.259521 
	C1627.128174,796.259521 1625.990234,796.202026 1624.859619,796.268616 
	C1615.158936,796.839905 1613.388184,795.735413 1613.584351,786.042725 
	C1614.086304,761.240906 1615.103271,736.449219 1615.962280,711.655151 
	C1616.106445,707.493896 1618.250732,704.838318 1622.423584,703.930664 
	C1624.036865,703.579895 1625.621582,703.099121 1627.590332,702.579651 
	C1627.787476,698.827332 1627.983765,695.090637 1628.154419,691.839722 
	C1611.241821,691.839722 1594.833252,691.839722 1578.283936,691.839722 
	C1577.738159,696.224548 1577.284790,699.867371 1576.803711,703.732971 
	C1578.996094,703.835571 1580.143921,703.935547 1581.291748,703.935608 
	C1589.282959,703.936218 1590.367798,704.745728 1590.407471,712.645691 
	C1590.525513,736.127869 1590.555176,759.611633 1590.399414,783.093323 
	C1590.335938,792.630310 1588.531494,794.694702 1578.981934,797.697815 
M936.522339,691.178101 
	C920.734009,691.178101 904.945679,691.178101 888.643433,691.178101 
	C888.231506,696.044312 887.909241,699.851501 887.578064,703.763428 
	C889.159180,703.868469 889.818237,703.946899 890.477661,703.950806 
	C899.419617,704.004517 900.106750,704.613464 900.113708,713.613281 
	C900.131958,737.419739 900.142456,761.226501 900.015808,785.032410 
	C899.975403,792.635376 898.170654,794.563049 890.948547,796.589905 
	C889.562744,796.978882 887.583374,797.912964 887.280823,798.989746 
	C886.459473,801.913391 886.390930,805.048523 885.972839,808.524841 
	C902.387634,808.524841 918.176575,808.550842 933.964905,808.458740 
	C934.888000,808.453369 936.477478,807.627869 936.612244,806.954895 
	C937.281128,803.613892 937.565796,800.195923 938.030334,796.445618 
	C936.280212,796.445618 935.157593,796.385315 934.043152,796.455261 
	C925.279175,797.005310 922.981689,795.220642 923.146545,786.588440 
	C923.617188,761.955872 924.363464,737.328491 925.008972,712.699280 
	C925.122498,708.369263 927.136108,705.044189 931.407715,704.322144 
	C936.112854,703.526855 937.347595,700.986450 936.997925,696.781616 
	C936.860840,695.133545 937.028015,693.460205 936.522339,691.178101 
M991.913330,691.687561 
	C978.125732,691.687561 964.338135,691.687561 950.128479,691.687561 
	C949.674011,695.565308 949.225098,699.396057 948.785095,703.150452 
	C950.031921,703.527771 950.488159,703.728088 950.963867,703.800598 
	C959.796997,705.146790 961.303528,708.987915 955.705811,716.106140 
	C954.165283,718.065063 952.430176,719.874329 950.742493,721.713806 
	C943.651855,729.442261 936.623535,737.230225 929.406006,744.838623 
	C926.514160,747.886963 926.353455,750.627991 928.572266,754.148010 
	C937.176147,767.797119 945.504883,781.620300 954.162048,795.234985 
	C956.550354,798.991089 959.188293,802.980469 962.683411,805.531372 
	C966.236206,808.124390 970.903625,810.134583 975.236328,810.481018 
	C980.941956,810.937195 986.825562,809.709045 992.579529,808.849487 
	C997.232239,808.154419 995.555420,803.919067 995.940979,801.181152 
	C996.105774,800.010986 994.381836,798.143311 993.065552,797.278076 
	C989.265564,794.780029 984.023621,793.540405 981.507385,790.186462 
	C970.658936,775.726135 960.583313,760.686096 950.056702,745.614380 
	C960.857239,733.810852 971.078308,722.431396 981.580811,711.317749 
	C984.038818,708.716736 987.362610,706.877441 990.445679,704.938171 
	C994.039673,702.677551 995.359985,695.531677 991.913330,691.687561 
M570.903015,689.865662 
	C570.134644,686.816528 569.761658,683.590942 568.499207,680.762390 
	C566.876953,677.127625 563.965149,677.125732 562.513733,680.847412 
	C561.151611,684.340454 560.166687,688.236023 560.150879,691.959229 
	C559.985840,730.949463 559.995117,769.940735 560.140320,808.931091 
	C560.153687,812.506714 561.201538,816.150574 562.258972,819.613159 
	C562.658691,820.922119 564.484985,822.691711 565.590820,822.643494 
	C566.759766,822.592407 568.470459,820.801208 568.846558,819.461975 
	C569.870361,815.816040 570.887390,812.009277 570.899719,808.262878 
	C571.028503,769.105957 570.959351,729.948364 570.903015,689.865662 
z"/>
<path fill="#000000" opacity="1.000000" stroke="none" 
	d="
M276.231476,823.750244 
	C252.192169,805.880432 245.189758,775.628296 258.662292,750.186829 
	C270.271484,728.264038 300.639069,710.557007 335.445007,726.539062 
	C339.515656,719.232422 344.097565,712.093323 347.441071,704.414978 
	C348.603119,701.746338 346.913605,697.693604 346.143585,694.361450 
	C345.136169,690.002075 343.748993,685.730530 342.856873,682.589172 
	C339.389374,680.839783 336.733093,679.499634 334.076843,678.159485 
	C327.404602,676.314392 321.294800,673.426758 316.458740,667.476624 
	C331.562073,670.560425 347.509674,664.329346 362.048126,672.100159 
	C356.395355,674.466614 349.360291,669.974976 345.151917,677.078003 
	C347.309875,683.921387 349.637482,691.302734 352.005615,698.812622 
	C380.948669,698.812622 409.716614,698.812622 438.802734,698.812622 
	C437.466919,694.625305 436.179840,690.590820 434.669342,685.855896 
	C437.250458,685.300537 439.588501,684.387085 441.936829,684.359863 
	C455.577545,684.201843 469.220978,684.211731 482.862396,684.314331 
	C483.884155,684.322021 484.897156,685.496521 485.914246,686.128540 
	C485.069733,686.975647 484.282257,688.481934 483.371277,688.560730 
	C478.235657,689.005066 473.071869,689.234680 467.914825,689.295898 
	C459.151703,689.400085 450.386505,689.324524 441.467438,689.324524 
	C445.113403,700.944214 448.740875,712.505066 452.527771,724.573975 
	C471.449707,717.535583 489.708252,718.815857 506.663147,730.166382 
	C518.466003,738.067932 526.164612,749.150452 529.754578,762.898376 
	C537.007202,790.672974 522.255493,819.450989 495.488831,830.038635 
	C469.041748,840.499878 439.013947,829.649841 424.945099,804.623108 
	C412.409943,782.324585 414.595795,746.455322 448.230988,726.356506 
	C447.083374,723.281982 445.910736,720.140381 444.527710,716.435181 
	C443.451904,717.427185 442.376953,718.290894 441.450439,719.291870 
	C424.810699,737.269897 408.226044,755.299194 391.515381,773.210938 
	C389.466248,775.407227 388.824768,777.022400 390.110474,780.067627 
	C392.735840,786.285950 391.561371,792.274414 386.603943,797.013916 
	C381.710693,801.692078 375.889984,802.700745 369.517456,800.229675 
	C367.087341,799.287292 364.624939,798.428223 362.227875,797.549744 
	C345.660309,835.099304 304.028198,843.023621 276.231476,823.750244 
M312.269073,781.495850 
	C312.255737,782.007324 312.242432,782.518799 311.381348,783.062195 
	C309.900604,782.898987 308.013977,783.244141 307.029999,782.458679 
	C305.369354,781.132874 303.334106,779.150940 303.218597,777.333008 
	C303.104095,775.529968 304.891876,772.254150 306.324341,771.960510 
	C310.482635,771.107971 311.725616,767.981323 313.424164,765.068542 
	C318.529022,756.314575 323.587555,747.533447 328.627014,738.741638 
	C329.911255,736.501221 331.057678,734.181885 332.343658,731.754883 
	C321.680359,726.510925 311.109283,724.861389 299.891144,726.816650 
	C278.344360,730.572144 261.082062,748.123169 258.130432,769.524841 
	C254.960693,792.507751 266.872559,814.347534 287.737549,823.807983 
	C307.926727,832.961853 332.560791,827.870117 346.847260,811.003784 
	C350.571350,806.607056 352.796753,800.940857 355.810028,795.416199 
	C355.810028,795.416199 355.767853,794.961731 356.521698,794.701416 
	C357.275452,792.437439 358.029205,790.173462 358.908905,787.531128 
	C348.570404,785.915649 338.942841,784.309814 329.281708,782.940796 
	C323.774017,782.160217 318.211548,781.766113 312.269073,781.495850 
M314.441772,772.895752 
	C315.139862,773.835144 315.658997,775.286560 316.573669,775.606384 
	C318.419464,776.251526 320.481537,776.273010 322.452148,776.566711 
	C334.736908,778.397766 347.020996,780.232971 360.925537,782.308594 
	C359.758545,778.249878 358.861511,775.130005 358.240387,771.268921 
	C358.487061,770.353943 359.064301,769.387634 358.931305,768.531616 
	C356.545776,753.174988 348.227081,741.887390 334.806580,733.070679 
	C328.044586,746.216125 321.608917,758.727112 314.944733,771.664185 
	C314.860565,772.017639 314.945496,772.324585 314.441772,772.895752 
M423.975983,770.946716 
	C424.148773,776.252563 423.600586,781.700623 424.614746,786.840454 
	C430.028900,814.280334 456.133575,832.376953 482.950989,827.659180 
	C511.319183,822.668518 529.494629,797.144958 525.073181,768.507263 
	C520.063477,736.059387 483.025299,716.167603 454.354218,730.554138 
	C458.637543,746.667847 462.942902,762.773438 474.302582,775.930237 
	C466.802551,771.336182 462.394470,764.274353 459.038910,756.688904 
	C455.591766,748.896240 453.016449,740.718018 449.927429,732.350525 
	C435.155457,741.187622 426.671417,753.602661 423.975983,770.946716 
M385.013336,772.187805 
	C403.343597,752.408997 421.715851,732.668518 439.913879,712.768738 
	C441.183716,711.380066 442.112579,708.393616 441.463135,706.911133 
	C440.859497,705.533203 437.936829,704.481018 436.027924,704.469421 
	C410.385468,704.313354 384.741791,704.364746 359.098389,704.364685 
	C357.491272,704.364685 355.884125,704.364685 353.628845,704.364685 
	C360.208374,726.712708 366.568695,748.316162 372.665710,769.025391 
	C377.077301,770.348022 380.677765,771.427429 385.013336,772.187805 
M366.601898,764.943665 
	C360.997711,746.002075 355.393494,727.060486 349.477325,707.064514 
	C345.220917,714.745117 341.547363,721.374023 337.903381,727.949585 
	C356.441071,742.878601 358.886810,746.629578 365.051392,768.914917 
	C365.299866,769.813232 366.498657,770.448608 367.254669,771.206482 
	C367.526520,770.964111 367.798401,770.721741 368.070251,770.479370 
	C367.664825,768.892517 367.259430,767.305603 366.601898,764.943665 
M384.840729,787.259644 
	C378.872284,788.798157 377.874756,791.237915 380.901398,797.328613 
	C384.912903,796.604553 386.996613,793.796814 387.935852,790.189148 
	C388.134521,789.425903 386.460144,788.175049 384.840729,787.259644 
M367.525848,792.672668 
	C367.313446,793.623779 366.607880,794.871521 366.971558,795.476074 
	C368.833527,798.570923 374.254181,799.559937 377.778717,797.667236 
	C375.782928,790.800781 374.223419,789.927490 367.525848,792.672668 
M387.809906,784.793884 
	C387.694641,782.880615 387.579407,780.967346 387.390137,777.825562 
	C384.861816,780.544373 383.488129,782.021606 381.576599,784.077148 
	C383.978210,784.490051 385.539795,784.758484 387.809906,784.793884 
z"/>
<path fill="#394351" opacity="1.000000" stroke="none" 
	d="
M806.247925,774.007812 
	C805.214661,792.967407 791.828857,806.332886 771.071045,808.851318 
	C764.525269,809.645447 757.816650,809.140991 751.182495,809.154358 
	C736.739929,809.183472 722.297241,809.163330 707.216370,809.163330 
	C707.482422,806.173706 707.599548,802.760315 708.206665,799.436340 
	C708.368286,798.551331 709.924988,797.637756 711.022095,797.251892 
	C719.748230,794.183105 721.208496,792.469055 721.284790,783.164978 
	C721.473145,760.185120 721.539917,737.204041 721.575012,714.223328 
	C721.589478,704.782410 720.780762,704.066467 711.451843,704.008179 
	C710.796265,704.003967 710.141418,703.893005 708.527466,703.741943 
	C709.021301,699.828552 709.500244,696.033020 710.010864,691.986145 
	C722.922729,691.986145 735.395264,691.896423 747.865784,692.015442 
	C757.318054,692.105652 766.878540,691.643860 776.190796,692.905151 
	C788.059387,694.512756 797.212585,700.713562 799.635864,713.427124 
	C802.087036,726.287537 796.919128,736.152954 786.380371,743.466736 
	C784.915894,744.483032 783.444397,745.489197 781.556458,746.789124 
	C794.638428,751.670410 806.074219,757.576355 806.247925,774.007812 
M753.509399,757.180237 
	C750.755310,757.180237 748.001221,757.180237 744.416687,757.180237 
	C744.416687,764.838440 744.608765,771.656189 744.374939,778.459290 
	C743.945190,790.962524 746.305847,793.729126 758.817200,794.620300 
	C759.811951,794.691284 760.813354,794.740356 761.809265,794.713440 
	C771.505005,794.451660 778.250977,789.449402 779.881287,781.335022 
	C781.855103,771.510132 778.208496,763.515747 768.951477,759.790039 
	C764.494812,757.996338 759.317566,757.992981 753.509399,757.180237 
M745.815186,731.354309 
	C745.815186,734.763550 745.815186,738.172791 745.815186,741.728455 
	C750.862671,742.204956 755.476562,742.723389 760.104553,743.027954 
	C761.530640,743.121826 763.136230,742.942017 764.418701,742.358215 
	C771.979065,738.916321 776.149780,730.215149 775.033691,720.570984 
	C774.169373,713.101746 769.263794,708.531616 760.133423,706.910645 
	C757.364624,706.419128 754.525391,706.335449 751.725342,706.005920 
	C748.340027,705.607544 746.904541,707.028198 746.813232,710.471313 
	C746.637146,717.115723 746.182251,723.752686 745.815186,731.354309 
z"/>
<path fill="#394351" opacity="1.000000" stroke="none" 
	d="
M1184.964355,762.378845 
	C1182.130371,762.163940 1180.726440,762.748352 1180.761719,765.581360 
	C1180.850586,772.735779 1180.460327,779.902039 1180.723511,787.046631 
	C1180.993286,794.372986 1182.279541,795.430969 1189.621460,796.314453 
	C1190.917114,796.470276 1192.195557,796.769409 1193.941772,797.085632 
	C1193.379761,801.011536 1192.850098,804.712463 1192.300537,808.551880 
	C1175.763672,808.551880 1159.693848,808.551880 1143.278076,808.551880 
	C1143.605591,805.626953 1143.722412,802.665283 1144.362183,799.821289 
	C1144.614502,798.699524 1145.851685,797.327881 1146.947510,796.941589 
	C1155.893555,793.788574 1157.255737,792.492981 1157.331665,783.072083 
	C1157.521973,759.428162 1157.482178,735.781372 1157.372070,712.136536 
	C1157.337280,704.647278 1156.317383,703.897827 1148.900269,703.975708 
	C1147.748535,703.987793 1146.596558,703.977417 1144.499512,703.977417 
	C1145.033936,699.928894 1145.522095,696.231567 1145.989868,692.688110 
	C1146.497681,692.387756 1146.770752,692.085449 1147.044800,692.084412 
	C1165.852539,692.013489 1184.661377,691.843994 1203.467285,692.014404 
	C1207.563599,692.051514 1211.748779,692.955261 1215.722534,694.068359 
	C1236.841797,699.984070 1245.284058,721.618347 1232.947021,739.870422 
	C1228.428223,746.555603 1221.530151,751.632568 1215.717529,757.443176 
	C1215.200073,757.226257 1214.682495,757.009277 1214.165039,756.792358 
	C1215.666260,759.290222 1217.141602,761.804138 1218.673706,764.282898 
	C1223.134766,771.499939 1227.486206,778.789734 1232.134277,785.884705 
	C1236.044189,791.852844 1240.796997,796.830994 1248.455078,798.000488 
	C1249.451660,798.152710 1250.822754,800.142334 1250.869385,801.326233 
	C1250.964844,803.746277 1250.277222,806.197205 1249.877319,808.867920 
	C1242.890869,809.560059 1236.136719,810.478088 1229.353271,810.830017 
	C1222.770874,811.171448 1217.809692,807.638611 1214.329102,802.452637 
	C1211.194946,797.782654 1208.666870,792.689575 1206.065063,787.682495 
	C1202.999146,781.782043 1199.716064,775.938538 1197.317261,769.763428 
	C1195.067627,763.972534 1191.773193,761.058716 1184.964355,762.378845 
M1181.686768,736.146484 
	C1181.686768,739.587036 1181.686768,743.027527 1181.686768,746.621521 
	C1184.661499,747.025024 1187.506348,747.149231 1190.212036,747.828064 
	C1197.670654,749.699463 1203.139648,746.301453 1207.973022,741.339478 
	C1218.657104,730.371155 1213.461304,711.142456 1198.738037,707.412964 
	C1195.067993,706.483337 1191.170898,706.450684 1187.378906,706.000305 
	C1184.170288,705.619263 1182.891724,707.101746 1182.791260,710.261841 
	C1182.527100,718.580933 1182.088745,726.894470 1181.686768,736.146484 
z"/>
<path fill="#394351" opacity="1.000000" stroke="none" 
	d="
M1656.181152,730.000000 
	C1656.139160,722.839294 1656.122192,716.178284 1656.045898,709.518005 
	C1656.001343,705.634644 1654.066162,703.884033 1650.088867,703.871643 
	C1643.144775,703.850037 1643.129517,703.722656 1644.123901,696.869873 
	C1644.337769,695.395813 1644.710083,693.944824 1644.985718,692.598755 
	C1645.432983,692.356445 1645.710571,692.074768 1645.989258,692.073853 
	C1664.798462,692.010498 1683.608887,691.845764 1702.416016,692.024353 
	C1706.511841,692.063171 1710.697266,692.979248 1714.668457,694.102722 
	C1735.333618,699.948669 1743.888794,721.034241 1732.164185,739.131714 
	C1727.614380,746.154663 1720.439209,751.476807 1713.477051,758.575867 
	C1720.213623,768.683167 1727.661987,780.435852 1735.812744,791.679138 
	C1737.836304,794.470337 1741.934204,796.491150 1745.437744,797.289124 
	C1749.749268,798.271057 1750.556763,800.065552 1749.497192,803.812866 
	C1749.093384,805.240784 1749.017944,806.761536 1748.684448,808.952759 
	C1741.269897,809.571777 1733.678711,810.908875 1726.144409,810.641846 
	C1718.204956,810.360352 1713.522095,804.381897 1710.070068,797.884521 
	C1705.390625,789.076904 1701.103760,780.060303 1696.668213,771.123474 
	C1691.743042,761.200073 1691.572876,761.104370 1679.874878,762.950256 
	C1679.874878,772.108643 1679.722656,781.352600 1679.952881,790.587036 
	C1680.039917,794.081360 1682.634888,795.720398 1686.012085,796.070618 
	C1688.113403,796.288452 1690.209595,796.555603 1692.779785,796.855774 
	C1692.141968,801.137695 1691.588867,804.850525 1691.020996,808.662598 
	C1689.106201,808.662598 1687.618408,808.662659 1686.130493,808.662659 
	C1671.532837,808.662659 1656.935303,808.662598 1642.000244,808.662598 
	C1642.401611,805.341125 1642.547852,802.186646 1643.279175,799.174316 
	C1643.521973,798.173706 1645.152222,797.163513 1646.344849,796.796326 
	C1654.172119,794.386108 1656.010986,792.327576 1656.082764,783.958069 
	C1656.235596,766.139771 1656.161987,748.319458 1656.181152,730.000000 
M1697.789673,707.428528 
	C1694.013672,706.953003 1690.233887,706.506226 1686.462891,705.993652 
	C1683.002319,705.523254 1681.644165,707.214966 1681.509155,710.469788 
	C1681.123779,719.757080 1680.642944,729.040344 1680.262573,738.327820 
	C1680.149780,741.081482 1680.245117,743.843628 1680.245117,746.948364 
	C1686.194824,747.335693 1692.156006,749.287720 1696.947632,747.703003 
	C1706.281128,744.616089 1711.687744,738.377747 1711.981689,727.153381 
	C1712.256836,716.653259 1708.457153,711.120422 1697.789673,707.428528 
z"/>
<path fill="#394351" opacity="1.000000" stroke="none" 
	d="
M1538.377197,723.462036 
	C1544.036255,743.358826 1549.548462,762.871826 1555.096069,782.374695 
	C1557.085571,789.369324 1559.845703,795.628906 1568.356323,796.760925 
	C1569.187378,796.871460 1570.267700,798.743347 1570.371338,799.876465 
	C1570.549683,801.825684 1570.391846,803.966003 1569.709351,805.774902 
	C1569.284912,806.899902 1567.655151,808.292664 1566.533081,808.322754 
	C1551.066406,808.737427 1535.591431,808.847290 1520.124634,809.259644 
	C1516.889648,809.345825 1515.880127,808.354553 1516.384399,805.275513 
	C1516.786011,802.823730 1516.952026,800.333496 1517.248901,797.621155 
	C1520.200317,797.104858 1523.109985,796.584229 1526.024048,796.088928 
	C1529.851807,795.438354 1531.645386,793.127197 1530.870850,789.375671 
	C1529.729614,783.848206 1528.355225,778.361206 1526.823120,772.929504 
	C1526.563965,772.010742 1525.010742,770.825195 1524.061279,770.830444 
	C1514.253784,770.884583 1504.445190,771.095032 1494.644775,771.469482 
	C1493.676636,771.506470 1492.251465,772.741699 1491.906738,773.725037 
	C1490.150391,778.738647 1488.391968,783.785522 1487.191406,788.950256 
	C1486.043457,793.887939 1487.890259,796.226990 1492.951904,796.698242 
	C1496.372681,797.016785 1499.847168,796.758972 1503.997070,796.758972 
	C1503.553467,801.121765 1503.192017,804.677795 1502.803955,808.494873 
	C1487.011963,808.494873 1471.311646,808.494873 1455.675415,808.494873 
	C1454.384399,801.094421 1455.916138,798.947327 1460.730347,794.726135 
	C1464.034302,791.829346 1466.626099,787.501892 1468.162964,783.310364 
	C1476.973267,759.281067 1485.374512,735.101685 1493.909180,710.971313 
	C1495.072998,707.680969 1496.606445,704.458069 1497.268188,701.067200 
	C1498.506348,694.722900 1501.959961,692.080811 1508.441528,692.091553 
	C1514.070801,692.100830 1519.721680,691.233643 1525.324219,690.470032 
	C1528.465210,690.041992 1529.877319,691.200317 1530.624878,694.140686 
	C1533.082031,703.806213 1535.692749,713.432739 1538.377197,723.462036 
M1501.504517,741.995117 
	C1500.031982,746.560669 1498.559448,751.126160 1496.995239,755.976013 
	C1505.807861,755.976013 1514.204224,755.976013 1523.102173,755.976013 
	C1519.215332,742.182556 1516.336792,728.671326 1512.086792,715.573303 
	C1511.431030,715.648987 1510.775391,715.724670 1510.119751,715.800354 
	C1507.344971,724.286133 1504.570190,732.771851 1501.504517,741.995117 
z"/>
<path fill="#394351" opacity="1.000000" stroke="none" 
	d="
M1080.143799,781.796997 
	C1082.163452,773.522156 1082.163818,773.526245 1090.742554,772.863037 
	C1091.904297,772.773193 1093.062500,772.632080 1094.219604,772.491638 
	C1096.823975,772.175659 1097.912231,773.099548 1097.479980,775.888916 
	C1095.951904,785.752136 1094.462036,795.623169 1093.148926,805.516724 
	C1092.685547,809.007568 1090.565552,809.194092 1087.830688,809.132812 
	C1069.683105,808.726624 1051.534912,808.178223 1033.385254,808.110596 
	C1023.931335,808.075317 1014.474182,808.925842 1004.472351,809.402283 
	C1004.723083,806.213989 1004.691956,802.913513 1005.385498,799.773132 
	C1005.632324,798.655212 1007.508484,797.520874 1008.862793,797.087097 
	C1015.694397,794.899536 1018.059326,792.605164 1018.159119,785.315552 
	C1018.496460,760.670349 1018.615417,736.020447 1018.561646,711.372864 
	C1018.547058,704.682373 1017.394531,703.854004 1010.341309,704.032288 
	C1006.825256,704.121155 1005.867188,702.940979 1006.607117,699.638184 
	C1007.144775,697.238525 1007.298950,694.752991 1007.685059,691.847595 
	C1009.725708,691.847595 1011.510498,691.876892 1013.294067,691.843201 
	C1039.751343,691.343811 1066.209229,690.870789 1092.664429,690.275879 
	C1095.257690,690.217590 1096.567627,690.873779 1096.206787,693.555176 
	C1094.833496,703.757324 1093.414062,713.953186 1091.939941,724.675171 
	C1087.083008,725.027405 1082.045776,725.392700 1076.422241,725.800537 
	C1076.422241,721.933594 1076.555176,718.482971 1076.387817,715.046875 
	C1076.188721,710.957092 1073.724487,708.434875 1069.816284,708.114929 
	C1062.863403,707.545715 1055.872559,707.377563 1048.893555,707.219299 
	C1045.967163,707.152832 1044.230469,708.843933 1044.081665,711.834839 
	C1043.603149,721.444885 1043.175415,731.057373 1042.726929,740.691956 
	C1053.649658,740.691956 1064.060669,741.046021 1074.434204,740.575256 
	C1082.155518,740.224792 1082.155151,739.752258 1080.985596,747.619690 
	C1080.548706,750.559265 1079.986206,753.480225 1079.361206,757.102661 
	C1067.034180,757.102661 1054.810425,757.102661 1041.992676,757.102661 
	C1041.992676,768.097168 1041.877930,778.360352 1042.053833,788.618591 
	C1042.116943,792.293823 1044.908325,793.902649 1048.197510,793.848938 
	C1055.338257,793.732117 1062.511963,793.609924 1069.598755,792.825684 
	C1075.602905,792.161194 1078.731934,787.868774 1080.143799,781.796997 
z"/>
<path fill="#394351" opacity="1.000000" stroke="none" 
	d="
M1323.719971,691.900635 
	C1331.666748,691.392090 1339.149292,690.998535 1346.609619,690.349976 
	C1349.630127,690.087402 1351.079834,690.773132 1350.588867,694.093567 
	C1349.107910,704.109558 1347.715820,714.138611 1346.218506,724.658264 
	C1341.612915,725.012878 1336.694092,725.391541 1330.993774,725.830444 
	C1330.993774,722.717896 1331.077271,719.811768 1330.976196,716.912048 
	C1330.769775,710.985107 1328.892822,708.536255 1323.098999,707.978821 
	C1316.654297,707.358765 1310.148193,707.337097 1303.665894,707.163574 
	C1300.512329,707.079163 1298.612671,708.707336 1298.441650,711.926758 
	C1297.931396,721.531189 1297.491455,731.139404 1297.032593,740.571655 
	C1308.182861,740.571655 1318.934448,740.879089 1329.657471,740.458740 
	C1336.315796,740.197754 1336.701782,740.129395 1335.525146,746.620361 
	C1335.228516,748.256958 1335.047607,749.914551 1334.751343,751.551208 
	C1334.454956,753.187317 1334.080566,754.809448 1333.697632,756.642395 
	C1324.929932,756.642395 1316.138306,756.419006 1307.362549,756.698547 
	C1296.185059,757.054504 1296.175171,757.229797 1296.089111,768.583435 
	C1296.043701,774.579102 1295.902588,780.580627 1296.100952,786.569702 
	C1296.278564,791.930176 1298.137817,793.837769 1303.470581,793.911194 
	C1309.283936,793.991333 1315.149658,793.970215 1320.910522,793.294006 
	C1329.987427,792.228516 1333.486450,789.289062 1334.725830,780.327026 
	C1335.553467,774.343689 1338.069702,772.839172 1343.642090,772.828857 
	C1352.294189,772.812866 1352.220459,772.440918 1350.945923,780.873169 
	C1349.802368,788.439392 1348.684326,796.016541 1347.867188,803.622375 
	C1347.430908,807.683594 1345.959229,809.325867 1341.574341,809.190857 
	C1322.932129,808.617004 1304.279907,808.199097 1285.629761,808.128601 
	C1276.860352,808.095398 1268.087280,808.976868 1258.729614,809.475037 
	C1259.044067,806.292603 1259.139404,803.149597 1259.766235,800.116455 
	C1259.997314,798.998535 1261.304199,797.639587 1262.422852,797.242126 
	C1270.970825,794.205688 1272.729614,792.093018 1272.845581,782.657166 
	C1273.019775,768.500732 1272.948730,754.341309 1272.973389,740.183105 
	C1272.989014,731.188416 1273.021484,722.193665 1272.986206,713.199158 
	C1272.952515,704.573303 1272.299683,703.974487 1263.538574,703.986389 
	C1262.882324,703.987305 1262.225952,703.889343 1260.736694,703.771179 
	C1261.134399,699.809753 1261.520874,695.960999 1261.927368,691.913147 
	C1282.658081,691.913147 1302.952393,691.913147 1323.719971,691.900635 
z"/>
<path fill="#394351" opacity="1.000000" stroke="none" 
	d="
M676.418823,777.338257 
	C677.708496,775.702087 678.753967,773.583618 680.109924,773.361572 
	C693.261719,771.208679 693.210266,771.289185 691.222595,784.295654 
	C690.242310,790.710876 689.414795,797.157532 688.793518,803.616516 
	C688.405151,807.653625 686.922119,809.330750 682.511963,809.192993 
	C663.863037,808.610718 645.203430,808.199402 626.546265,808.127625 
	C617.780457,808.093933 609.011230,808.970825 599.790588,809.458984 
	C599.916687,807.240417 600.112610,805.122620 600.140381,803.002625 
	C600.186584,799.473389 601.212524,797.271240 605.313660,796.589294 
	C610.024780,795.805786 612.789368,792.463501 613.239929,787.545715 
	C613.497742,784.732361 613.821045,781.910583 613.832703,779.091431 
	C613.918457,758.262878 613.937622,737.434021 613.968567,716.605225 
	C613.986267,704.729675 613.978455,704.729675 601.613281,703.598999 
	C602.043030,699.733582 602.471741,695.877136 602.893921,692.079895 
	C618.721802,692.079895 634.040649,692.300049 649.349915,692.012024 
	C662.163147,691.770874 674.969238,691.010681 687.769287,690.311646 
	C690.990845,690.135681 691.937622,691.143921 691.459595,694.310425 
	C689.970337,704.175537 688.666870,714.068665 687.199707,724.609314 
	C682.601379,724.987549 677.542603,725.403748 671.933655,725.865173 
	C671.933655,722.508301 672.010498,719.395325 671.915894,716.287598 
	C671.768250,711.435364 669.370117,708.350037 664.405273,707.985840 
	C658.103027,707.523682 651.777466,707.380066 645.462219,707.094482 
	C641.303101,706.906372 639.227783,709.006531 639.200684,713.051392 
	C639.139465,722.199585 639.181458,731.348511 639.181458,741.647278 
	C644.197449,741.647278 650.273193,741.826782 656.333191,741.594116 
	C661.818665,741.383423 667.300781,740.843506 672.757629,740.216492 
	C676.129028,739.829041 677.498535,740.945984 676.878052,744.343689 
	C676.135071,748.412292 675.435181,752.488831 674.659668,756.884705 
	C664.369812,756.884705 654.235962,756.719299 644.110657,756.941772 
	C637.138123,757.094971 637.127075,757.335083 637.082092,764.224915 
	C637.035400,771.389465 636.917725,778.555908 637.030273,785.718384 
	C637.129456,792.037170 638.871643,793.801514 645.048279,793.960571 
	C649.541321,794.076233 654.060059,794.129395 658.536194,793.794800 
	C670.864807,792.873169 674.087830,789.861389 676.418823,777.338257 
z"/>
<path fill="#3A4451" opacity="1.000000" stroke="none" 
	d="
M1448.227295,755.231812 
	C1435.562744,767.095459 1420.182739,767.826782 1404.109497,766.805359 
	C1404.109497,775.269775 1403.924683,783.189636 1404.200317,791.093384 
	C1404.310913,794.266785 1406.583008,796.154541 1409.919556,796.221375 
	C1413.203613,796.287170 1416.489868,796.235779 1420.534668,796.235779 
	C1419.955444,800.486145 1419.427979,804.356567 1418.846313,808.624451 
	C1401.445557,808.624451 1384.348022,808.624451 1366.780762,808.624451 
	C1367.131836,805.659424 1367.326050,802.524658 1367.966797,799.483948 
	C1368.168701,798.525757 1369.425293,797.432617 1370.440918,797.059448 
	C1378.659058,794.040161 1380.169922,792.614563 1380.240112,784.188049 
	C1380.441162,760.025146 1380.417236,735.859131 1380.283447,711.695435 
	C1380.244629,704.659058 1379.116333,703.914490 1371.850342,703.980713 
	C1370.698975,703.991150 1369.547363,703.982117 1367.495239,703.982117 
	C1367.970337,699.911011 1368.402832,696.203735 1368.875000,692.157288 
	C1376.830322,692.157288 1384.447876,692.174866 1392.065552,692.153198 
	C1404.057739,692.119141 1416.081665,691.478271 1428.035034,692.135742 
	C1449.832886,693.334717 1463.262939,708.019409 1461.893311,728.430908 
	C1461.177490,739.099487 1456.136108,747.742004 1448.227295,755.231812 
M1433.960449,743.211914 
	C1434.928833,737.546753 1436.636597,731.887451 1436.681152,726.215027 
	C1436.738892,718.869019 1433.799194,712.127686 1426.326416,709.557922 
	C1420.958984,707.712219 1415.028442,707.396179 1409.307739,706.786865 
	C1408.309082,706.680542 1406.197021,708.446045 1406.132568,709.445740 
	C1405.249023,723.163391 1404.635010,736.898376 1403.961792,750.484680 
	C1420.181152,755.188904 1427.103638,753.579712 1433.960449,743.211914 
z"/>
<path fill="#3B4451" opacity="1.000000" stroke="none" 
	d="
M831.991211,808.723877 
	C827.906189,808.994873 824.285522,809.217163 820.092346,809.474609 
	C820.454529,805.552979 820.783020,801.996399 821.101501,798.547791 
	C834.221619,793.261597 834.375061,793.039612 834.378906,778.706604 
	C834.384460,757.727173 834.403198,736.747681 834.367737,715.768311 
	C834.350525,705.576294 834.373291,702.921631 823.344788,703.932129 
	C822.736694,703.987915 822.096985,703.698303 820.741821,703.418823 
	C821.210754,699.729736 821.661865,696.181213 822.211182,691.859924 
	C838.682373,691.859924 855.095581,691.859924 872.067444,691.859924 
	C871.927795,694.952759 871.759033,698.691223 871.583923,702.570374 
	C869.539429,703.102295 867.794434,703.571228 866.041748,704.009094 
	C862.381592,704.923462 860.142395,707.227112 860.008362,711.000122 
	C859.104187,736.450745 858.054871,761.900208 857.586121,787.359924 
	C857.431824,795.741638 859.517273,796.884644 868.124329,796.316528 
	C869.567017,796.221252 871.021362,796.303101 873.016602,796.303101 
	C872.561707,800.028809 872.482910,803.360779 871.586670,806.456116 
	C871.300049,807.446106 868.858948,808.345703 867.385925,808.374207 
	C855.744873,808.599121 844.099548,808.603210 831.991211,808.723877 
z"/>
<path fill="#394351" opacity="1.000000" stroke="none" 
	d="
M1579.355835,797.559082 
	C1588.531494,794.694702 1590.335938,792.630310 1590.399414,783.093323 
	C1590.555176,759.611633 1590.525513,736.127869 1590.407471,712.645691 
	C1590.367798,704.745728 1589.282959,703.936218 1581.291748,703.935608 
	C1580.143921,703.935547 1578.996094,703.835571 1576.803711,703.732971 
	C1577.284790,699.867371 1577.738159,696.224548 1578.283936,691.839722 
	C1594.833252,691.839722 1611.241821,691.839722 1628.154419,691.839722 
	C1627.983765,695.090637 1627.787476,698.827332 1627.590332,702.579651 
	C1625.621582,703.099121 1624.036865,703.579895 1622.423584,703.930664 
	C1618.250732,704.838318 1616.106445,707.493896 1615.962280,711.655151 
	C1615.103271,736.449219 1614.086304,761.240906 1613.584351,786.042725 
	C1613.388184,795.735413 1615.158936,796.839905 1624.859619,796.268616 
	C1625.990234,796.202026 1627.128174,796.259521 1629.016479,796.259521 
	C1628.578247,799.980835 1628.352051,803.386841 1627.657715,806.694580 
	C1627.495728,807.466675 1625.748779,808.414246 1624.725220,808.421265 
	C1608.777222,808.530090 1592.828247,808.497437 1575.624146,808.497437 
	C1576.655884,805.179016 1577.818970,801.438416 1579.355835,797.559082 
z"/>
<path fill="#394351" opacity="1.000000" stroke="none" 
	d="
M936.789490,691.488220 
	C937.028015,693.460205 936.860840,695.133545 936.997925,696.781616 
	C937.347595,700.986450 936.112854,703.526855 931.407715,704.322144 
	C927.136108,705.044189 925.122498,708.369263 925.008972,712.699280 
	C924.363464,737.328491 923.617188,761.955872 923.146545,786.588440 
	C922.981689,795.220642 925.279175,797.005310 934.043152,796.455261 
	C935.157593,796.385315 936.280212,796.445618 938.030334,796.445618 
	C937.565796,800.195923 937.281128,803.613892 936.612244,806.954895 
	C936.477478,807.627869 934.888000,808.453369 933.964905,808.458740 
	C918.176575,808.550842 902.387634,808.524841 885.972839,808.524841 
	C886.390930,805.048523 886.459473,801.913391 887.280823,798.989746 
	C887.583374,797.912964 889.562744,796.978882 890.948547,796.589905 
	C898.170654,794.563049 899.975403,792.635376 900.015808,785.032410 
	C900.142456,761.226501 900.131958,737.419739 900.113708,713.613281 
	C900.106750,704.613464 899.419617,704.004517 890.477661,703.950806 
	C889.818237,703.946899 889.159180,703.868469 887.578064,703.763428 
	C887.909241,699.851501 888.231506,696.044312 888.643433,691.178101 
	C904.945679,691.178101 920.734009,691.178101 936.789490,691.488220 
z"/>
<path fill="#394351" opacity="1.000000" stroke="none" 
	d="
M992.295776,691.715393 
	C995.359985,695.531677 994.039673,702.677551 990.445679,704.938171 
	C987.362610,706.877441 984.038818,708.716736 981.580811,711.317749 
	C971.078308,722.431396 960.857239,733.810852 950.056702,745.614380 
	C960.583313,760.686096 970.658936,775.726135 981.507385,790.186462 
	C984.023621,793.540405 989.265564,794.780029 993.065552,797.278076 
	C994.381836,798.143311 996.105774,800.010986 995.940979,801.181152 
	C995.555420,803.919067 997.232239,808.154419 992.579529,808.849487 
	C986.825562,809.709045 980.941956,810.937195 975.236328,810.481018 
	C970.903625,810.134583 966.236206,808.124390 962.683411,805.531372 
	C959.188293,802.980469 956.550354,798.991089 954.162048,795.234985 
	C945.504883,781.620300 937.176147,767.797119 928.572266,754.148010 
	C926.353455,750.627991 926.514160,747.886963 929.406006,744.838623 
	C936.623535,737.230225 943.651855,729.442261 950.742493,721.713806 
	C952.430176,719.874329 954.165283,718.065063 955.705811,716.106140 
	C961.303528,708.987915 959.796997,705.146790 950.963867,703.800598 
	C950.488159,703.728088 950.031921,703.527771 948.785095,703.150452 
	C949.225098,699.396057 949.674011,695.565308 950.128479,691.687561 
	C964.338135,691.687561 978.125732,691.687561 992.295776,691.715393 
z"/>
<path fill="#394351" opacity="1.000000" stroke="none" 
	d="
M570.924011,690.328308 
	C570.959351,729.948364 571.028503,769.105957 570.899719,808.262878 
	C570.887390,812.009277 569.870361,815.816040 568.846558,819.461975 
	C568.470459,820.801208 566.759766,822.592407 565.590820,822.643494 
	C564.484985,822.691711 562.658691,820.922119 562.258972,819.613159 
	C561.201538,816.150574 560.153687,812.506714 560.140320,808.931091 
	C559.995117,769.940735 559.985840,730.949463 560.150879,691.959229 
	C560.166687,688.236023 561.151611,684.340454 562.513733,680.847412 
	C563.965149,677.125732 566.876953,677.127625 568.499207,680.762390 
	C569.761658,683.590942 570.134644,686.816528 570.924011,690.328308 
z"/>

<path fill="#3B4451" opacity="1.000000" stroke="none" 
	d="
M312.471405,781.346924 
	C314.541321,782.079651 316.331390,783.225586 318.289124,783.799866 
	C330.614044,787.414917 342.976257,790.903076 355.546997,794.697449 
	C355.767853,794.961731 355.810028,795.416199 355.760254,795.636963 
	C341.352936,791.765137 326.995392,787.672485 312.433502,783.305054 
	C312.242432,782.518799 312.255737,782.007324 312.471405,781.346924 
z"/>

<path fill="#3B4451" opacity="1.000000" stroke="none" 
	d="
M349.877991,772.415039 
	C338.868530,772.467896 327.461456,772.636597 315.626984,772.695190 
	C314.945496,772.324585 314.860565,772.017639 315.058990,771.451172 
	C326.608978,771.669128 338.044708,772.100037 349.877991,772.415039 
z"/>

</svg>