<svg xmlns="http://www.w3.org/2000/svg" xmlns:xlink="http://www.w3.org/1999/xlink" width="300" zoomAndPan="magnify" viewBox="0 0 224.87999 37.5" height="50" preserveAspectRatio="xMidYMid meet" version="1.0"><path fill="#000000" d="M 6.042969 29.289062 C 2.507812 26.667969 1.476562 22.234375 3.460938 18.507812 C 5.167969 15.292969 9.636719 12.699219 14.757812 15.042969 C 15.355469 13.972656 16.03125 12.925781 16.523438 11.800781 C 16.695312 11.410156 16.445312 10.816406 16.332031 10.328125 C 16.183594 9.6875 15.980469 9.0625 15.847656 8.601562 C 15.339844 8.34375 14.949219 8.148438 14.554688 7.953125 C 13.574219 7.679688 12.675781 7.257812 11.964844 6.386719 C 14.1875 6.839844 16.535156 5.925781 18.671875 7.0625 C 17.839844 7.410156 16.804688 6.753906 16.1875 7.792969 C 16.503906 8.796875 16.847656 9.878906 17.195312 10.976562 C 21.453125 10.976562 25.6875 10.976562 29.96875 10.976562 C 29.769531 10.363281 29.582031 9.773438 29.359375 9.078125 C 29.738281 9 30.082031 8.863281 30.429688 8.859375 C 32.433594 8.835938 34.441406 8.839844 36.449219 8.855469 C 36.601562 8.855469 36.75 9.027344 36.898438 9.121094 C 36.773438 9.242188 36.660156 9.464844 36.523438 9.476562 C 35.769531 9.542969 35.007812 9.574219 34.25 9.582031 C 32.960938 9.597656 31.671875 9.589844 30.359375 9.589844 C 30.894531 11.289062 31.429688 12.984375 31.988281 14.753906 C 34.769531 13.722656 37.457031 13.910156 39.953125 15.574219 C 41.691406 16.730469 42.824219 18.355469 43.351562 20.371094 C 44.417969 24.441406 42.246094 28.65625 38.308594 30.210938 C 34.417969 31.742188 30 30.152344 27.929688 26.484375 C 26.082031 23.21875 26.40625 17.960938 31.355469 15.015625 C 31.183594 14.5625 31.011719 14.105469 30.808594 13.5625 C 30.652344 13.707031 30.492188 13.832031 30.355469 13.980469 C 27.90625 16.613281 25.46875 19.257812 23.007812 21.882812 C 22.707031 22.203125 22.613281 22.441406 22.800781 22.886719 C 23.1875 23.796875 23.015625 24.675781 22.285156 25.371094 C 21.566406 26.054688 20.710938 26.203125 19.773438 25.839844 C 19.414062 25.703125 19.050781 25.578125 18.699219 25.449219 C 16.261719 30.949219 10.136719 32.113281 6.042969 29.289062 M 11.347656 23.09375 C 11.34375 23.171875 11.34375 23.246094 11.21875 23.324219 C 11 23.300781 10.722656 23.351562 10.578125 23.238281 C 10.332031 23.042969 10.03125 22.75 10.015625 22.484375 C 10 22.222656 10.261719 21.742188 10.472656 21.699219 C 11.085938 21.574219 11.269531 21.113281 11.515625 20.6875 C 12.269531 19.40625 13.011719 18.117188 13.753906 16.828125 C 13.945312 16.5 14.113281 16.160156 14.300781 15.804688 C 12.734375 15.039062 11.175781 14.796875 9.527344 15.082031 C 6.355469 15.632812 3.816406 18.203125 3.382812 21.339844 C 2.914062 24.710938 4.667969 27.910156 7.738281 29.296875 C 10.707031 30.636719 14.332031 29.890625 16.4375 27.417969 C 16.984375 26.773438 17.3125 25.945312 17.753906 25.136719 C 17.753906 25.136719 17.75 25.070312 17.859375 25.03125 C 17.96875 24.699219 18.082031 24.367188 18.210938 23.980469 C 16.6875 23.742188 15.273438 23.507812 13.851562 23.308594 C 13.039062 23.191406 12.222656 23.136719 11.347656 23.09375 M 11.667969 21.835938 C 11.769531 21.972656 11.847656 22.183594 11.980469 22.230469 C 12.253906 22.328125 12.554688 22.328125 12.847656 22.375 C 14.652344 22.640625 16.460938 22.910156 18.507812 23.214844 C 18.335938 22.621094 18.203125 22.164062 18.113281 21.597656 C 18.148438 21.460938 18.234375 21.320312 18.214844 21.195312 C 17.863281 18.945312 16.640625 17.289062 14.664062 16 C 13.667969 17.925781 12.722656 19.757812 11.742188 21.65625 C 11.730469 21.707031 11.742188 21.75 11.667969 21.835938 M 27.785156 21.550781 C 27.8125 22.328125 27.730469 23.125 27.878906 23.878906 C 28.675781 27.898438 32.515625 30.550781 36.464844 29.859375 C 40.636719 29.128906 43.3125 25.390625 42.660156 21.191406 C 41.925781 16.4375 36.472656 13.523438 32.253906 15.628906 C 32.886719 17.992188 33.519531 20.351562 35.191406 22.28125 C 34.085938 21.605469 33.4375 20.570312 32.945312 19.460938 C 32.4375 18.316406 32.058594 17.121094 31.605469 15.894531 C 29.429688 17.1875 28.183594 19.007812 27.785156 21.550781 M 22.050781 21.730469 C 24.75 18.832031 27.453125 15.941406 30.128906 13.023438 C 30.316406 12.820312 30.453125 12.382812 30.359375 12.164062 C 30.269531 11.964844 29.839844 11.808594 29.558594 11.808594 C 25.785156 11.785156 22.011719 11.792969 18.238281 11.792969 C 18.003906 11.792969 17.765625 11.792969 17.433594 11.792969 C 18.402344 15.066406 19.335938 18.234375 20.234375 21.269531 C 20.882812 21.460938 21.414062 21.621094 22.050781 21.730469 M 19.34375 20.667969 C 18.519531 17.894531 17.695312 15.117188 16.824219 12.1875 C 16.195312 13.3125 15.65625 14.285156 15.121094 15.25 C 17.847656 17.4375 18.207031 17.984375 19.113281 21.25 C 19.152344 21.382812 19.328125 21.476562 19.4375 21.585938 C 19.480469 21.550781 19.519531 21.515625 19.558594 21.480469 C 19.5 21.25 19.4375 21.015625 19.34375 20.667969 M 22.027344 23.941406 C 21.148438 24.164062 21 24.523438 21.445312 25.414062 C 22.039062 25.308594 22.34375 24.898438 22.480469 24.371094 C 22.511719 24.257812 22.265625 24.074219 22.027344 23.941406 M 19.480469 24.734375 C 19.449219 24.871094 19.34375 25.054688 19.398438 25.144531 C 19.671875 25.597656 20.46875 25.742188 20.988281 25.464844 C 20.695312 24.460938 20.464844 24.332031 19.480469 24.734375 M 22.464844 23.578125 C 22.445312 23.296875 22.429688 23.019531 22.402344 22.558594 C 22.03125 22.957031 21.828125 23.171875 21.546875 23.472656 C 21.898438 23.535156 22.128906 23.574219 22.464844 23.578125 Z M 22.464844 23.578125 " fill-opacity="1" fill-rule="nonzero"/><path fill="#394351" d="M 84.035156 22 C 83.882812 24.777344 81.914062 26.734375 78.859375 27.105469 C 77.898438 27.21875 76.910156 27.148438 75.933594 27.148438 C 73.808594 27.152344 71.683594 27.148438 69.464844 27.148438 C 69.503906 26.710938 69.519531 26.210938 69.609375 25.722656 C 69.632812 25.59375 69.863281 25.460938 70.023438 25.40625 C 71.308594 24.953125 71.523438 24.703125 71.535156 23.339844 C 71.5625 19.972656 71.570312 16.605469 71.578125 13.238281 C 71.578125 11.851562 71.460938 11.75 70.085938 11.738281 C 69.992188 11.738281 69.894531 11.722656 69.65625 11.699219 C 69.730469 11.128906 69.800781 10.570312 69.875 9.976562 C 71.773438 9.976562 73.609375 9.964844 75.445312 9.980469 C 76.835938 9.996094 78.242188 9.929688 79.613281 10.113281 C 81.359375 10.347656 82.707031 11.257812 83.0625 13.121094 C 83.425781 15.003906 82.664062 16.449219 81.113281 17.523438 C 80.898438 17.671875 80.679688 17.820312 80.402344 18.007812 C 82.328125 18.726562 84.011719 19.589844 84.035156 22 M 76.277344 19.53125 C 75.871094 19.53125 75.464844 19.53125 74.9375 19.53125 C 74.9375 20.65625 74.964844 21.652344 74.933594 22.652344 C 74.867188 24.484375 75.214844 24.886719 77.058594 25.019531 C 77.203125 25.027344 77.351562 25.035156 77.496094 25.03125 C 78.925781 24.992188 79.917969 24.261719 80.15625 23.070312 C 80.445312 21.632812 79.910156 20.460938 78.546875 19.914062 C 77.894531 19.652344 77.128906 19.652344 76.277344 19.53125 M 75.144531 15.746094 C 75.144531 16.246094 75.144531 16.746094 75.144531 17.269531 C 75.886719 17.335938 76.566406 17.414062 77.246094 17.457031 C 77.457031 17.472656 77.691406 17.445312 77.882812 17.359375 C 78.992188 16.855469 79.609375 15.582031 79.445312 14.167969 C 79.316406 13.074219 78.59375 12.402344 77.25 12.164062 C 76.84375 12.09375 76.425781 12.082031 76.011719 12.03125 C 75.515625 11.972656 75.304688 12.183594 75.289062 12.6875 C 75.265625 13.660156 75.199219 14.632812 75.144531 15.746094 Z M 75.144531 15.746094 " fill-opacity="1" fill-rule="nonzero"/><path fill="#394351" d="M 139.765625 20.292969 C 139.347656 20.261719 139.140625 20.347656 139.144531 20.761719 C 139.160156 21.8125 139.101562 22.863281 139.140625 23.910156 C 139.179688 24.984375 139.371094 25.136719 140.449219 25.265625 C 140.640625 25.289062 140.828125 25.332031 141.085938 25.378906 C 141.003906 25.957031 140.925781 26.496094 140.84375 27.058594 C 138.410156 27.058594 136.046875 27.058594 133.628906 27.058594 C 133.679688 26.632812 133.695312 26.199219 133.789062 25.78125 C 133.828125 25.617188 134.007812 25.414062 134.171875 25.359375 C 135.488281 24.898438 135.6875 24.707031 135.699219 23.328125 C 135.726562 19.863281 135.722656 16.394531 135.703125 12.929688 C 135.699219 11.832031 135.550781 11.722656 134.457031 11.734375 C 134.289062 11.738281 134.117188 11.734375 133.808594 11.734375 C 133.890625 11.140625 133.960938 10.601562 134.03125 10.082031 C 134.105469 10.035156 134.144531 9.992188 134.183594 9.992188 C 136.953125 9.980469 139.71875 9.957031 142.488281 9.980469 C 143.089844 9.988281 143.707031 10.121094 144.289062 10.285156 C 147.398438 11.148438 148.640625 14.320312 146.824219 16.996094 C 146.160156 17.976562 145.144531 18.71875 144.289062 19.570312 C 144.214844 19.539062 144.136719 19.507812 144.0625 19.476562 C 144.28125 19.839844 144.5 20.210938 144.726562 20.574219 C 145.382812 21.628906 146.023438 22.699219 146.707031 23.738281 C 147.28125 24.613281 147.980469 25.34375 149.109375 25.515625 C 149.253906 25.535156 149.457031 25.828125 149.460938 26 C 149.476562 26.355469 149.375 26.714844 149.316406 27.105469 C 148.289062 27.207031 147.292969 27.34375 146.296875 27.394531 C 145.328125 27.445312 144.597656 26.925781 144.085938 26.167969 C 143.625 25.480469 143.253906 24.734375 142.871094 24.003906 C 142.417969 23.136719 141.9375 22.28125 141.582031 21.375 C 141.25 20.527344 140.765625 20.101562 139.765625 20.292969 M 139.28125 16.449219 C 139.28125 16.953125 139.28125 17.457031 139.28125 17.984375 C 139.71875 18.042969 140.140625 18.0625 140.535156 18.160156 C 141.632812 18.4375 142.4375 17.9375 143.152344 17.210938 C 144.722656 15.601562 143.957031 12.785156 141.792969 12.238281 C 141.25 12.101562 140.679688 12.097656 140.121094 12.03125 C 139.648438 11.976562 139.460938 12.191406 139.445312 12.65625 C 139.40625 13.875 139.339844 15.09375 139.28125 16.449219 Z M 139.28125 16.449219 " fill-opacity="1" fill-rule="nonzero"/><path fill="#394351" d="M 209.105469 15.550781 C 209.097656 14.5 209.097656 13.523438 209.085938 12.546875 C 209.078125 11.976562 208.792969 11.722656 208.207031 11.71875 C 207.1875 11.714844 207.183594 11.699219 207.332031 10.695312 C 207.363281 10.476562 207.417969 10.265625 207.457031 10.066406 C 207.523438 10.03125 207.5625 9.992188 207.605469 9.992188 C 210.371094 9.980469 213.140625 9.957031 215.90625 9.984375 C 216.511719 9.988281 217.125 10.125 217.710938 10.289062 C 220.75 11.144531 222.011719 14.234375 220.285156 16.886719 C 219.617188 17.917969 218.558594 18.695312 217.535156 19.738281 C 218.527344 21.21875 219.621094 22.941406 220.820312 24.585938 C 221.121094 24.996094 221.722656 25.292969 222.238281 25.410156 C 222.871094 25.554688 222.992188 25.816406 222.835938 26.367188 C 222.777344 26.574219 222.765625 26.796875 222.714844 27.117188 C 221.625 27.210938 220.507812 27.40625 219.398438 27.367188 C 218.230469 27.324219 217.542969 26.449219 217.035156 25.496094 C 216.34375 24.207031 215.714844 22.886719 215.0625 21.574219 C 214.335938 20.121094 214.3125 20.105469 212.589844 20.378906 C 212.589844 21.71875 212.570312 23.074219 212.601562 24.425781 C 212.617188 24.941406 212.996094 25.179688 213.492188 25.230469 C 213.804688 25.261719 214.113281 25.300781 214.488281 25.347656 C 214.394531 25.972656 214.316406 26.519531 214.230469 27.078125 C 213.949219 27.078125 213.730469 27.078125 213.511719 27.078125 C 211.363281 27.078125 209.214844 27.078125 207.019531 27.078125 C 207.078125 26.589844 207.097656 26.128906 207.207031 25.6875 C 207.242188 25.539062 207.480469 25.390625 207.65625 25.335938 C 208.808594 24.984375 209.078125 24.683594 209.089844 23.457031 C 209.113281 20.84375 209.101562 18.234375 209.105469 15.550781 M 215.226562 12.242188 C 214.671875 12.171875 214.117188 12.105469 213.558594 12.03125 C 213.050781 11.960938 212.851562 12.210938 212.832031 12.6875 C 212.773438 14.046875 212.703125 15.410156 212.648438 16.769531 C 212.632812 17.171875 212.644531 17.578125 212.644531 18.03125 C 213.519531 18.089844 214.398438 18.375 215.101562 18.144531 C 216.476562 17.691406 217.273438 16.777344 217.316406 15.132812 C 217.355469 13.59375 216.796875 12.78125 215.226562 12.242188 Z M 215.226562 12.242188 " fill-opacity="1" fill-rule="nonzero"/><path fill="#394351" d="M 191.769531 14.589844 C 192.601562 17.507812 193.414062 20.367188 194.230469 23.222656 C 194.523438 24.25 194.929688 25.167969 196.179688 25.332031 C 196.304688 25.347656 196.460938 25.621094 196.476562 25.789062 C 196.503906 26.074219 196.480469 26.386719 196.378906 26.652344 C 196.316406 26.816406 196.078125 27.023438 195.914062 27.027344 C 193.636719 27.085938 191.359375 27.105469 189.082031 27.164062 C 188.609375 27.175781 188.460938 27.03125 188.535156 26.582031 C 188.59375 26.222656 188.617188 25.855469 188.660156 25.457031 C 189.09375 25.382812 189.523438 25.304688 189.953125 25.234375 C 190.515625 25.136719 190.777344 24.800781 190.664062 24.25 C 190.496094 23.441406 190.292969 22.636719 190.070312 21.839844 C 190.03125 21.707031 189.800781 21.53125 189.664062 21.53125 C 188.21875 21.539062 186.777344 21.570312 185.335938 21.625 C 185.191406 21.632812 184.980469 21.8125 184.929688 21.957031 C 184.671875 22.691406 184.414062 23.429688 184.238281 24.1875 C 184.070312 24.910156 184.339844 25.253906 185.085938 25.324219 C 185.589844 25.371094 186.101562 25.332031 186.710938 25.332031 C 186.644531 25.972656 186.59375 26.492188 186.535156 27.050781 C 184.210938 27.050781 181.902344 27.050781 179.601562 27.050781 C 179.410156 25.96875 179.636719 25.652344 180.34375 25.035156 C 180.828125 24.609375 181.210938 23.976562 181.4375 23.359375 C 182.734375 19.839844 183.96875 16.296875 185.226562 12.761719 C 185.398438 12.277344 185.621094 11.804688 185.71875 11.308594 C 185.902344 10.378906 186.410156 9.992188 187.363281 9.992188 C 188.191406 9.996094 189.023438 9.867188 189.847656 9.757812 C 190.3125 9.691406 190.519531 9.863281 190.628906 10.292969 C 190.992188 11.710938 191.375 13.121094 191.769531 14.589844 M 186.34375 17.308594 C 186.128906 17.976562 185.910156 18.644531 185.679688 19.355469 C 186.976562 19.355469 188.210938 19.355469 189.523438 19.355469 C 188.949219 17.335938 188.527344 15.355469 187.902344 13.433594 C 187.804688 13.445312 187.707031 13.457031 187.613281 13.46875 C 187.203125 14.710938 186.792969 15.957031 186.34375 17.308594 Z M 186.34375 17.308594 " fill-opacity="1" fill-rule="nonzero"/><path fill="#394351" d="M 124.339844 23.140625 C 124.636719 21.925781 124.636719 21.925781 125.898438 21.832031 C 126.070312 21.816406 126.242188 21.796875 126.410156 21.777344 C 126.796875 21.730469 126.957031 21.863281 126.890625 22.273438 C 126.667969 23.71875 126.449219 25.164062 126.253906 26.617188 C 126.1875 27.128906 125.875 27.15625 125.472656 27.144531 C 122.800781 27.085938 120.128906 27.003906 117.460938 26.996094 C 116.070312 26.992188 114.675781 27.113281 113.207031 27.183594 C 113.242188 26.71875 113.238281 26.234375 113.339844 25.773438 C 113.375 25.609375 113.652344 25.445312 113.851562 25.378906 C 114.855469 25.058594 115.203125 24.722656 115.21875 23.65625 C 115.269531 20.042969 115.285156 16.429688 115.277344 12.820312 C 115.277344 11.839844 115.105469 11.71875 114.070312 11.742188 C 113.550781 11.757812 113.410156 11.582031 113.519531 11.097656 C 113.597656 10.746094 113.621094 10.382812 113.679688 9.957031 C 113.976562 9.957031 114.242188 9.960938 114.503906 9.957031 C 118.398438 9.882812 122.289062 9.816406 126.183594 9.726562 C 126.566406 9.71875 126.757812 9.816406 126.703125 10.207031 C 126.503906 11.703125 126.292969 13.199219 126.078125 14.769531 C 125.363281 14.820312 124.621094 14.875 123.792969 14.933594 C 123.792969 14.367188 123.8125 13.859375 123.789062 13.359375 C 123.757812 12.757812 123.394531 12.386719 122.820312 12.339844 C 121.796875 12.257812 120.769531 12.234375 119.742188 12.210938 C 119.3125 12.199219 119.054688 12.449219 119.035156 12.886719 C 118.964844 14.296875 118.902344 15.703125 118.835938 17.117188 C 120.441406 17.117188 121.972656 17.167969 123.5 17.097656 C 124.636719 17.046875 124.636719 16.976562 124.464844 18.132812 C 124.398438 18.5625 124.316406 18.988281 124.226562 19.519531 C 122.410156 19.519531 120.613281 19.519531 118.726562 19.519531 C 118.726562 21.132812 118.710938 22.636719 118.734375 24.140625 C 118.746094 24.679688 119.15625 24.914062 119.640625 24.90625 C 120.691406 24.886719 121.746094 24.871094 122.789062 24.753906 C 123.671875 24.660156 124.132812 24.03125 124.339844 23.140625 Z M 124.339844 23.140625 " fill-opacity="1" fill-rule="nonzero"/><path fill="#394351" d="M 160.183594 9.964844 C 161.351562 9.890625 162.453125 9.832031 163.550781 9.738281 C 163.996094 9.699219 164.207031 9.800781 164.136719 10.285156 C 163.917969 11.753906 163.714844 13.222656 163.492188 14.765625 C 162.816406 14.816406 162.09375 14.875 161.253906 14.9375 C 161.253906 14.480469 161.265625 14.054688 161.25 13.632812 C 161.21875 12.761719 160.945312 12.402344 160.089844 12.320312 C 159.144531 12.230469 158.1875 12.226562 157.230469 12.203125 C 156.769531 12.191406 156.488281 12.429688 156.464844 12.898438 C 156.386719 14.308594 156.324219 15.714844 156.253906 17.097656 C 157.894531 17.097656 159.480469 17.144531 161.054688 17.082031 C 162.035156 17.042969 162.09375 17.035156 161.917969 17.984375 C 161.875 18.222656 161.851562 18.46875 161.804688 18.707031 C 161.761719 18.945312 161.707031 19.183594 161.652344 19.453125 C 160.359375 19.453125 159.066406 19.421875 157.777344 19.460938 C 156.132812 19.511719 156.128906 19.539062 156.117188 21.203125 C 156.109375 22.082031 156.089844 22.960938 156.117188 23.839844 C 156.144531 24.625 156.417969 24.902344 157.203125 24.914062 C 158.058594 24.925781 158.921875 24.921875 159.769531 24.824219 C 161.105469 24.667969 161.621094 24.238281 161.800781 22.925781 C 161.925781 22.046875 162.292969 21.828125 163.113281 21.824219 C 164.386719 21.824219 164.375 21.769531 164.1875 23.003906 C 164.019531 24.113281 163.855469 25.222656 163.734375 26.339844 C 163.671875 26.933594 163.457031 27.171875 162.808594 27.152344 C 160.066406 27.070312 157.320312 27.007812 154.578125 27 C 153.289062 26.992188 151.996094 27.121094 150.621094 27.195312 C 150.664062 26.730469 150.679688 26.269531 150.773438 25.824219 C 150.804688 25.660156 151 25.460938 151.164062 25.402344 C 152.421875 24.957031 152.679688 24.648438 152.695312 23.265625 C 152.722656 21.191406 152.710938 19.117188 152.714844 17.042969 C 152.71875 15.722656 152.722656 14.40625 152.71875 13.085938 C 152.710938 11.824219 152.617188 11.734375 151.328125 11.738281 C 151.230469 11.738281 151.132812 11.722656 150.914062 11.707031 C 150.972656 11.125 151.03125 10.5625 151.089844 9.96875 C 154.140625 9.96875 157.125 9.96875 160.183594 9.964844 Z M 160.183594 9.964844 " fill-opacity="1" fill-rule="nonzero"/><path fill="#394351" d="M 64.933594 22.484375 C 65.121094 22.246094 65.277344 21.9375 65.476562 21.902344 C 67.410156 21.585938 67.402344 21.601562 67.109375 23.503906 C 66.964844 24.445312 66.84375 25.390625 66.753906 26.335938 C 66.695312 26.929688 66.476562 27.175781 65.828125 27.15625 C 63.085938 27.070312 60.339844 27.007812 57.59375 27 C 56.304688 26.992188 55.011719 27.121094 53.65625 27.191406 C 53.675781 26.867188 53.703125 26.558594 53.707031 26.246094 C 53.714844 25.730469 53.867188 25.40625 54.46875 25.308594 C 55.164062 25.191406 55.570312 24.703125 55.636719 23.980469 C 55.671875 23.570312 55.722656 23.15625 55.722656 22.742188 C 55.734375 19.691406 55.738281 16.636719 55.742188 13.585938 C 55.746094 11.84375 55.746094 11.84375 53.925781 11.679688 C 53.988281 11.113281 54.050781 10.546875 54.113281 9.992188 C 56.441406 9.992188 58.695312 10.023438 60.949219 9.980469 C 62.835938 9.945312 64.71875 9.835938 66.601562 9.734375 C 67.078125 9.707031 67.214844 9.855469 67.144531 10.320312 C 66.925781 11.765625 66.734375 13.214844 66.519531 14.757812 C 65.84375 14.8125 65.097656 14.875 64.273438 14.941406 C 64.273438 14.449219 64.285156 13.996094 64.269531 13.539062 C 64.246094 12.828125 63.894531 12.375 63.164062 12.324219 C 62.238281 12.253906 61.304688 12.234375 60.378906 12.191406 C 59.765625 12.164062 59.460938 12.472656 59.457031 13.066406 C 59.445312 14.40625 59.453125 15.746094 59.453125 17.253906 C 60.191406 17.253906 61.085938 17.28125 61.976562 17.246094 C 62.785156 17.21875 63.589844 17.136719 64.394531 17.046875 C 64.890625 16.988281 65.089844 17.152344 65 17.652344 C 64.890625 18.246094 64.789062 18.84375 64.671875 19.488281 C 63.160156 19.488281 61.667969 19.464844 60.179688 19.496094 C 59.152344 19.519531 59.152344 19.554688 59.144531 20.5625 C 59.136719 21.613281 59.121094 22.664062 59.136719 23.714844 C 59.152344 24.640625 59.40625 24.898438 60.316406 24.921875 C 60.976562 24.9375 61.640625 24.945312 62.300781 24.898438 C 64.113281 24.761719 64.589844 24.320312 64.933594 22.484375 Z M 64.933594 22.484375 " fill-opacity="1" fill-rule="nonzero"/><path fill="#3a4451" d="M 178.503906 19.246094 C 176.640625 20.984375 174.378906 21.09375 172.011719 20.941406 C 172.011719 22.183594 171.984375 23.34375 172.027344 24.5 C 172.042969 24.96875 172.375 25.242188 172.867188 25.253906 C 173.351562 25.261719 173.832031 25.253906 174.429688 25.253906 C 174.34375 25.878906 174.265625 26.445312 174.179688 27.070312 C 171.621094 27.070312 169.105469 27.070312 166.519531 27.070312 C 166.570312 26.636719 166.597656 26.175781 166.695312 25.730469 C 166.722656 25.589844 166.910156 25.429688 167.058594 25.375 C 168.265625 24.933594 168.488281 24.726562 168.5 23.488281 C 168.527344 19.949219 168.527344 16.40625 168.507812 12.867188 C 168.5 11.835938 168.335938 11.726562 167.265625 11.734375 C 167.097656 11.738281 166.925781 11.734375 166.625 11.734375 C 166.695312 11.140625 166.757812 10.597656 166.828125 10.003906 C 167.996094 10.003906 169.117188 10.003906 170.238281 10.003906 C 172.003906 9.996094 173.773438 9.902344 175.53125 10 C 178.742188 10.175781 180.714844 12.328125 180.515625 15.320312 C 180.410156 16.882812 179.667969 18.148438 178.503906 19.246094 M 176.40625 17.484375 C 176.546875 16.65625 176.796875 15.824219 176.804688 14.996094 C 176.8125 13.917969 176.382812 12.929688 175.28125 12.554688 C 174.492188 12.28125 173.617188 12.238281 172.777344 12.148438 C 172.628906 12.132812 172.320312 12.390625 172.308594 12.535156 C 172.179688 14.546875 172.089844 16.558594 171.992188 18.550781 C 174.378906 19.238281 175.394531 19.003906 176.40625 17.484375 Z M 176.40625 17.484375 " fill-opacity="1" fill-rule="nonzero"/><path fill="#3b4451" d="M 87.824219 27.085938 C 87.222656 27.125 86.691406 27.15625 86.074219 27.195312 C 86.128906 26.621094 86.175781 26.101562 86.222656 25.59375 C 88.152344 24.820312 88.175781 24.785156 88.175781 22.6875 C 88.175781 19.613281 88.179688 16.539062 88.175781 13.464844 C 88.171875 11.96875 88.175781 11.582031 86.550781 11.730469 C 86.464844 11.738281 86.367188 11.695312 86.167969 11.652344 C 86.238281 11.113281 86.304688 10.59375 86.386719 9.960938 C 88.808594 9.960938 91.222656 9.960938 93.722656 9.960938 C 93.703125 10.414062 93.675781 10.960938 93.652344 11.527344 C 93.351562 11.605469 93.09375 11.675781 92.835938 11.738281 C 92.296875 11.875 91.96875 12.210938 91.949219 12.765625 C 91.816406 16.496094 91.660156 20.222656 91.589844 23.953125 C 91.570312 25.183594 91.875 25.351562 93.140625 25.265625 C 93.355469 25.253906 93.566406 25.265625 93.863281 25.265625 C 93.792969 25.8125 93.78125 26.300781 93.652344 26.753906 C 93.609375 26.898438 93.25 27.03125 93.03125 27.035156 C 91.320312 27.066406 89.605469 27.066406 87.824219 27.085938 Z M 87.824219 27.085938 " fill-opacity="1" fill-rule="nonzero"/><path fill="#394351" d="M 197.800781 25.449219 C 199.148438 25.03125 199.414062 24.726562 199.425781 23.328125 C 199.449219 19.886719 199.441406 16.445312 199.425781 13.003906 C 199.421875 11.847656 199.261719 11.730469 198.085938 11.730469 C 197.914062 11.730469 197.746094 11.714844 197.425781 11.699219 C 197.496094 11.132812 197.5625 10.597656 197.640625 9.957031 C 200.078125 9.957031 202.492188 9.957031 204.980469 9.957031 C 204.957031 10.433594 204.925781 10.980469 204.898438 11.53125 C 204.609375 11.605469 204.375 11.675781 204.136719 11.730469 C 203.523438 11.863281 203.207031 12.25 203.1875 12.859375 C 203.058594 16.492188 202.910156 20.128906 202.835938 23.761719 C 202.808594 25.183594 203.066406 25.34375 204.496094 25.261719 C 204.660156 25.25 204.828125 25.257812 205.105469 25.257812 C 205.042969 25.804688 205.007812 26.304688 204.90625 26.789062 C 204.882812 26.902344 204.625 27.039062 204.476562 27.042969 C 202.128906 27.058594 199.78125 27.050781 197.25 27.050781 C 197.402344 26.566406 197.574219 26.019531 197.800781 25.449219 Z M 197.800781 25.449219 " fill-opacity="1" fill-rule="nonzero"/><path fill="#394351" d="M 103.246094 9.90625 C 103.28125 10.195312 103.257812 10.4375 103.277344 10.679688 C 103.328125 11.296875 103.144531 11.667969 102.453125 11.785156 C 101.824219 11.890625 101.527344 12.378906 101.511719 13.011719 C 101.417969 16.621094 101.308594 20.230469 101.238281 23.839844 C 101.214844 25.105469 101.550781 25.367188 102.839844 25.289062 C 103.003906 25.277344 103.171875 25.285156 103.429688 25.285156 C 103.359375 25.835938 103.316406 26.335938 103.21875 26.828125 C 103.199219 26.925781 102.964844 27.046875 102.832031 27.046875 C 100.507812 27.058594 98.183594 27.054688 95.769531 27.054688 C 95.828125 26.546875 95.839844 26.085938 95.960938 25.660156 C 96.003906 25.5 96.296875 25.363281 96.5 25.308594 C 97.5625 25.011719 97.828125 24.726562 97.835938 23.613281 C 97.851562 20.125 97.851562 16.636719 97.847656 13.148438 C 97.847656 11.828125 97.746094 11.738281 96.429688 11.730469 C 96.335938 11.730469 96.238281 11.71875 96.003906 11.703125 C 96.054688 11.128906 96.101562 10.574219 96.160156 9.859375 C 98.558594 9.859375 100.882812 9.859375 103.246094 9.90625 Z M 103.246094 9.90625 " fill-opacity="1" fill-rule="nonzero"/><path fill="#394351" d="M 111.414062 9.9375 C 111.863281 10.496094 111.671875 11.542969 111.140625 11.875 C 110.6875 12.160156 110.199219 12.429688 109.835938 12.8125 C 108.292969 14.441406 106.789062 16.105469 105.199219 17.835938 C 106.746094 20.046875 108.230469 22.25 109.824219 24.367188 C 110.195312 24.859375 110.96875 25.042969 111.527344 25.410156 C 111.71875 25.535156 111.972656 25.808594 111.949219 25.980469 C 111.894531 26.382812 112.140625 27.003906 111.457031 27.105469 C 110.609375 27.230469 109.742188 27.410156 108.902344 27.34375 C 108.265625 27.292969 107.578125 26.996094 107.054688 26.617188 C 106.542969 26.242188 106.152344 25.660156 105.800781 25.109375 C 104.527344 23.113281 103.304688 21.089844 102.035156 19.085938 C 101.710938 18.570312 101.734375 18.171875 102.160156 17.722656 C 103.222656 16.609375 104.253906 15.46875 105.300781 14.335938 C 105.546875 14.066406 105.800781 13.800781 106.03125 13.511719 C 106.851562 12.46875 106.632812 11.90625 105.332031 11.710938 C 105.261719 11.699219 105.195312 11.667969 105.011719 11.613281 C 105.074219 11.0625 105.140625 10.503906 105.207031 9.933594 C 107.300781 9.933594 109.328125 9.933594 111.414062 9.9375 Z M 111.414062 9.9375 " fill-opacity="1" fill-rule="nonzero"/><path fill="#394351" d="M 49.410156 9.734375 C 49.414062 15.542969 49.425781 21.28125 49.40625 27.019531 C 49.402344 27.566406 49.253906 28.125 49.101562 28.660156 C 49.046875 28.855469 48.796875 29.117188 48.625 29.125 C 48.460938 29.132812 48.191406 28.875 48.132812 28.679688 C 47.976562 28.175781 47.824219 27.640625 47.820312 27.117188 C 47.800781 21.402344 47.800781 15.6875 47.824219 9.972656 C 47.824219 9.429688 47.972656 8.859375 48.171875 8.347656 C 48.382812 7.800781 48.8125 7.800781 49.050781 8.332031 C 49.238281 8.746094 49.292969 9.21875 49.410156 9.734375 Z M 49.410156 9.734375 " fill-opacity="1" fill-rule="nonzero"/><path fill="#3b4451" d="M 11.378906 23.074219 C 11.683594 23.179688 11.945312 23.347656 12.234375 23.433594 C 14.046875 23.960938 15.867188 24.472656 17.714844 25.03125 C 17.75 25.070312 17.753906 25.136719 17.746094 25.167969 C 15.628906 24.601562 13.515625 24 11.371094 23.359375 C 11.34375 23.246094 11.34375 23.171875 11.378906 23.074219 Z M 11.378906 23.074219 " fill-opacity="1" fill-rule="nonzero"/><path fill="#3b4451" d="M 16.882812 21.765625 C 15.261719 21.773438 13.582031 21.796875 11.839844 21.804688 C 11.742188 21.75 11.730469 21.707031 11.757812 21.625 C 13.457031 21.65625 15.140625 21.71875 16.882812 21.765625 Z M 16.882812 21.765625 " fill-opacity="1" fill-rule="nonzero"/></svg>